<mxfile host="app.diagrams.net" agent="Mozilla/5.0 (Macintosh; Intel Mac OS X 10_15_7) AppleWebKit/605.1.15 (KHTML, like Gecko) Version/17.5 Safari/605.1.15" version="26.2.12">
  <diagram name="第 1 页" id="XTs-wqm_MpcBQXB_Leg-">
    <mxGraphModel dx="1190" dy="673" grid="1" gridSize="10" guides="1" tooltips="1" connect="1" arrows="1" fold="1" page="1" pageScale="1" pageWidth="827" pageHeight="1169" math="0" shadow="0">
      <root>
        <mxCell id="0" />
        <mxCell id="1" parent="0" />
        <mxCell id="wH4gtBrT2uaNQ040a4KH-47" value="发送调度结果信息" style="html=1;verticalAlign=bottom;endArrow=block;curved=0;rounded=0;" edge="1" parent="1">
          <mxGeometry x="-0.006" width="80" relative="1" as="geometry">
            <mxPoint x="717.98" y="1080" as="sourcePoint" />
            <mxPoint x="838.98" y="1080" as="targetPoint" />
            <mxPoint as="offset" />
          </mxGeometry>
        </mxCell>
        <mxCell id="wH4gtBrT2uaNQ040a4KH-48" value="&lt;b&gt;Informer&lt;/b&gt;" style="shape=umlLifeline;perimeter=lifelinePerimeter;whiteSpace=wrap;html=1;container=1;dropTarget=0;collapsible=0;recursiveResize=0;outlineConnect=0;portConstraint=eastwest;newEdgeStyle={&quot;curved&quot;:0,&quot;rounded&quot;:0};size=40;fillColor=#f5f5f5;fontColor=#333333;strokeColor=#666666;fontSize=13;" vertex="1" parent="1">
          <mxGeometry x="555" y="561" width="70" height="589" as="geometry" />
        </mxCell>
        <mxCell id="wH4gtBrT2uaNQ040a4KH-49" value="" style="html=1;points=[[0,0,0,0,5],[0,1,0,0,-5],[1,0,0,0,5],[1,1,0,0,-5]];perimeter=orthogonalPerimeter;outlineConnect=0;targetShapes=umlLifeline;portConstraint=eastwest;newEdgeStyle={&quot;curved&quot;:0,&quot;rounded&quot;:0};" vertex="1" parent="wH4gtBrT2uaNQ040a4KH-48">
          <mxGeometry x="30" y="60" width="10" height="90" as="geometry" />
        </mxCell>
        <mxCell id="wH4gtBrT2uaNQ040a4KH-50" value="" style="html=1;points=[[0,0,0,0,5],[0,1,0,0,-5],[1,0,0,0,5],[1,1,0,0,-5]];perimeter=orthogonalPerimeter;outlineConnect=0;targetShapes=umlLifeline;portConstraint=eastwest;newEdgeStyle={&quot;curved&quot;:0,&quot;rounded&quot;:0};" vertex="1" parent="wH4gtBrT2uaNQ040a4KH-48">
          <mxGeometry x="35" y="99" width="10" height="20" as="geometry" />
        </mxCell>
        <mxCell id="wH4gtBrT2uaNQ040a4KH-51" value="解析设备参数" style="html=1;align=left;spacingLeft=2;endArrow=block;rounded=0;edgeStyle=orthogonalEdgeStyle;curved=0;rounded=0;" edge="1" parent="wH4gtBrT2uaNQ040a4KH-48">
          <mxGeometry x="-0.0024" relative="1" as="geometry">
            <mxPoint x="40" y="79" as="sourcePoint" />
            <Array as="points">
              <mxPoint x="70" y="109" />
            </Array>
            <mxPoint x="45" y="109" as="targetPoint" />
            <mxPoint as="offset" />
          </mxGeometry>
        </mxCell>
        <mxCell id="wH4gtBrT2uaNQ040a4KH-52" value="发送设备修改消息" style="html=1;verticalAlign=bottom;endArrow=block;curved=0;rounded=0;" edge="1" parent="1">
          <mxGeometry x="-0.0023" width="80" relative="1" as="geometry">
            <mxPoint x="594.9999999999999" y="699.0800000000002" as="sourcePoint" />
            <mxPoint x="710" y="699.0800000000002" as="targetPoint" />
            <mxPoint as="offset" />
          </mxGeometry>
        </mxCell>
        <mxCell id="wH4gtBrT2uaNQ040a4KH-53" value="转发设备修改消息" style="html=1;verticalAlign=bottom;endArrow=block;curved=0;rounded=0;exitX=0.984;exitY=0.004;exitDx=0;exitDy=0;exitPerimeter=0;" edge="1" parent="1" target="wH4gtBrT2uaNQ040a4KH-56">
          <mxGeometry x="-0.0009" width="80" relative="1" as="geometry">
            <mxPoint x="721" y="710" as="sourcePoint" />
            <mxPoint x="829" y="710" as="targetPoint" />
            <mxPoint as="offset" />
          </mxGeometry>
        </mxCell>
        <mxCell id="wH4gtBrT2uaNQ040a4KH-54" value="转发设备修改消息" style="html=1;verticalAlign=bottom;endArrow=block;curved=0;rounded=0;" edge="1" parent="1" source="wH4gtBrT2uaNQ040a4KH-56" target="wH4gtBrT2uaNQ040a4KH-63">
          <mxGeometry x="-0.006" width="80" relative="1" as="geometry">
            <mxPoint x="839" y="730" as="sourcePoint" />
            <mxPoint x="965" y="730" as="targetPoint" />
            <mxPoint as="offset" />
          </mxGeometry>
        </mxCell>
        <mxCell id="wH4gtBrT2uaNQ040a4KH-55" value="&lt;b&gt;Manager&lt;br&gt;（主节点）&lt;/b&gt;" style="shape=umlLifeline;perimeter=lifelinePerimeter;whiteSpace=wrap;html=1;container=1;dropTarget=0;collapsible=0;recursiveResize=0;outlineConnect=0;portConstraint=eastwest;newEdgeStyle={&quot;curved&quot;:0,&quot;rounded&quot;:0};size=40;fillColor=#f5f5f5;fontColor=#333333;strokeColor=#666666;fontSize=13;" vertex="1" parent="1">
          <mxGeometry x="809" y="560" width="70" height="590" as="geometry" />
        </mxCell>
        <mxCell id="wH4gtBrT2uaNQ040a4KH-56" value="" style="html=1;points=[[0,0,0,0,5],[0,1,0,0,-5],[1,0,0,0,5],[1,1,0,0,-5]];perimeter=orthogonalPerimeter;outlineConnect=0;targetShapes=umlLifeline;portConstraint=eastwest;newEdgeStyle={&quot;curved&quot;:0,&quot;rounded&quot;:0};" vertex="1" parent="wH4gtBrT2uaNQ040a4KH-55">
          <mxGeometry x="30" y="150" width="10" height="30" as="geometry" />
        </mxCell>
        <mxCell id="wH4gtBrT2uaNQ040a4KH-57" value="" style="html=1;points=[[0,0,0,0,5],[0,1,0,0,-5],[1,0,0,0,5],[1,1,0,0,-5]];perimeter=orthogonalPerimeter;outlineConnect=0;targetShapes=umlLifeline;portConstraint=eastwest;newEdgeStyle={&quot;curved&quot;:0,&quot;rounded&quot;:0};" vertex="1" parent="wH4gtBrT2uaNQ040a4KH-55">
          <mxGeometry x="30" y="293" width="10" height="157" as="geometry" />
        </mxCell>
        <mxCell id="wH4gtBrT2uaNQ040a4KH-58" value="" style="html=1;points=[[0,0,0,0,5],[0,1,0,0,-5],[1,0,0,0,5],[1,1,0,0,-5]];perimeter=orthogonalPerimeter;outlineConnect=0;targetShapes=umlLifeline;portConstraint=eastwest;newEdgeStyle={&quot;curved&quot;:0,&quot;rounded&quot;:0};" vertex="1" parent="wH4gtBrT2uaNQ040a4KH-55">
          <mxGeometry x="30" y="520" width="10" height="40" as="geometry" />
        </mxCell>
        <mxCell id="wH4gtBrT2uaNQ040a4KH-59" value="&lt;b&gt;Master&lt;/b&gt;" style="shape=umlLifeline;perimeter=lifelinePerimeter;whiteSpace=wrap;html=1;container=1;dropTarget=0;collapsible=0;recursiveResize=0;outlineConnect=0;portConstraint=eastwest;newEdgeStyle={&quot;curved&quot;:0,&quot;rounded&quot;:0};size=40;fillColor=#f5f5f5;fontColor=#333333;strokeColor=#666666;fontSize=13;" vertex="1" parent="1">
          <mxGeometry x="681" y="561" width="70" height="589" as="geometry" />
        </mxCell>
        <mxCell id="wH4gtBrT2uaNQ040a4KH-60" value="" style="html=1;points=[[0,0,0,0,5],[0,1,0,0,-5],[1,0,0,0,5],[1,1,0,0,-5]];perimeter=orthogonalPerimeter;outlineConnect=0;targetShapes=umlLifeline;portConstraint=eastwest;newEdgeStyle={&quot;curved&quot;:0,&quot;rounded&quot;:0};" vertex="1" parent="wH4gtBrT2uaNQ040a4KH-59">
          <mxGeometry x="30" y="137" width="10" height="33" as="geometry" />
        </mxCell>
        <mxCell id="wH4gtBrT2uaNQ040a4KH-61" value="" style="html=1;points=[[0,0,0,0,5],[0,1,0,0,-5],[1,0,0,0,5],[1,1,0,0,-5]];perimeter=orthogonalPerimeter;outlineConnect=0;targetShapes=umlLifeline;portConstraint=eastwest;newEdgeStyle={&quot;curved&quot;:0,&quot;rounded&quot;:0};" vertex="1" parent="wH4gtBrT2uaNQ040a4KH-59">
          <mxGeometry x="30" y="436" width="10" height="94" as="geometry" />
        </mxCell>
        <mxCell id="wH4gtBrT2uaNQ040a4KH-62" value="&lt;b&gt;Manager&lt;/b&gt;" style="shape=umlLifeline;perimeter=lifelinePerimeter;whiteSpace=wrap;html=1;container=1;dropTarget=0;collapsible=0;recursiveResize=0;outlineConnect=0;portConstraint=eastwest;newEdgeStyle={&quot;curved&quot;:0,&quot;rounded&quot;:0};size=40;fillColor=#f5f5f5;fontColor=#333333;strokeColor=#666666;fontSize=13;" vertex="1" parent="1">
          <mxGeometry x="940" y="560" width="70" height="590" as="geometry" />
        </mxCell>
        <mxCell id="wH4gtBrT2uaNQ040a4KH-63" value="" style="html=1;points=[[0,0,0,0,5],[0,1,0,0,-5],[1,0,0,0,5],[1,1,0,0,-5]];perimeter=orthogonalPerimeter;outlineConnect=0;targetShapes=umlLifeline;portConstraint=eastwest;newEdgeStyle={&quot;curved&quot;:0,&quot;rounded&quot;:0};" vertex="1" parent="wH4gtBrT2uaNQ040a4KH-62">
          <mxGeometry x="30" y="170" width="10" height="130" as="geometry" />
        </mxCell>
        <mxCell id="wH4gtBrT2uaNQ040a4KH-64" value="" style="html=1;points=[[0,0,0,0,5],[0,1,0,0,-5],[1,0,0,0,5],[1,1,0,0,-5]];perimeter=orthogonalPerimeter;outlineConnect=0;targetShapes=umlLifeline;portConstraint=eastwest;newEdgeStyle={&quot;curved&quot;:0,&quot;rounded&quot;:0};" vertex="1" parent="wH4gtBrT2uaNQ040a4KH-62">
          <mxGeometry x="35" y="220" width="10" height="20" as="geometry" />
        </mxCell>
        <mxCell id="wH4gtBrT2uaNQ040a4KH-65" value="本地调度" style="html=1;align=left;spacingLeft=2;endArrow=block;rounded=0;edgeStyle=orthogonalEdgeStyle;curved=0;rounded=0;" edge="1" parent="wH4gtBrT2uaNQ040a4KH-62">
          <mxGeometry relative="1" as="geometry">
            <mxPoint x="40" y="200" as="sourcePoint" />
            <Array as="points">
              <mxPoint x="70" y="230" />
            </Array>
            <mxPoint x="45" y="230" as="targetPoint" />
            <mxPoint as="offset" />
          </mxGeometry>
        </mxCell>
        <mxCell id="wH4gtBrT2uaNQ040a4KH-66" value="" style="html=1;points=[[0,0,0,0,5],[0,1,0,0,-5],[1,0,0,0,5],[1,1,0,0,-5]];perimeter=orthogonalPerimeter;outlineConnect=0;targetShapes=umlLifeline;portConstraint=eastwest;newEdgeStyle={&quot;curved&quot;:0,&quot;rounded&quot;:0};" vertex="1" parent="wH4gtBrT2uaNQ040a4KH-62">
          <mxGeometry x="30" y="548" width="10" height="20" as="geometry" />
        </mxCell>
        <mxCell id="wH4gtBrT2uaNQ040a4KH-67" value="alt" style="shape=umlFrame;whiteSpace=wrap;html=1;pointerEvents=0;width=50;height=20;" vertex="1" parent="1">
          <mxGeometry x="775" y="751" width="290" height="209" as="geometry" />
        </mxCell>
        <mxCell id="wH4gtBrT2uaNQ040a4KH-68" value="" style="endArrow=none;dashed=1;html=1;rounded=0;exitX=0.008;exitY=0.423;exitDx=0;exitDy=0;exitPerimeter=0;" edge="1" parent="1">
          <mxGeometry width="50" height="50" relative="1" as="geometry">
            <mxPoint x="777.0799999999999" y="810.4870000000001" as="sourcePoint" />
            <mxPoint x="1065" y="810" as="targetPoint" />
          </mxGeometry>
        </mxCell>
        <mxCell id="wH4gtBrT2uaNQ040a4KH-69" value="&lt;b&gt;[本地调度成功]&lt;/b&gt;" style="text;html=1;align=center;verticalAlign=middle;resizable=0;points=[];autosize=1;strokeColor=none;fillColor=none;" vertex="1" parent="1">
          <mxGeometry x="859" y="751" width="100" height="30" as="geometry" />
        </mxCell>
        <mxCell id="wH4gtBrT2uaNQ040a4KH-70" value="&lt;b&gt;[本地调度失败]&lt;/b&gt;" style="text;html=1;align=center;verticalAlign=middle;resizable=0;points=[];autosize=1;strokeColor=none;fillColor=none;" vertex="1" parent="1">
          <mxGeometry x="860" y="810" width="100" height="30" as="geometry" />
        </mxCell>
        <mxCell id="wH4gtBrT2uaNQ040a4KH-71" value="上一层节点调度请求" style="html=1;verticalAlign=bottom;endArrow=block;curved=0;rounded=0;" edge="1" parent="1">
          <mxGeometry x="-0.0107" width="80" relative="1" as="geometry">
            <mxPoint x="970" y="853" as="sourcePoint" />
            <mxPoint x="849" y="853" as="targetPoint" />
            <mxPoint as="offset" />
          </mxGeometry>
        </mxCell>
        <mxCell id="wH4gtBrT2uaNQ040a4KH-72" value="" style="html=1;points=[[0,0,0,0,5],[0,1,0,0,-5],[1,0,0,0,5],[1,1,0,0,-5]];perimeter=orthogonalPerimeter;outlineConnect=0;targetShapes=umlLifeline;portConstraint=eastwest;newEdgeStyle={&quot;curved&quot;:0,&quot;rounded&quot;:0};" vertex="1" parent="1">
          <mxGeometry x="843.98" y="890" width="10" height="20" as="geometry" />
        </mxCell>
        <mxCell id="wH4gtBrT2uaNQ040a4KH-73" value="&lt;div style=&quot;text-align: center;&quot;&gt;上一层节点调度&lt;/div&gt;" style="html=1;align=left;spacingLeft=2;endArrow=block;rounded=0;edgeStyle=orthogonalEdgeStyle;curved=0;rounded=0;" edge="1" parent="1">
          <mxGeometry x="-0.0002" relative="1" as="geometry">
            <mxPoint x="849" y="870" as="sourcePoint" />
            <Array as="points">
              <mxPoint x="878.98" y="900" />
            </Array>
            <mxPoint x="853.98" y="900" as="targetPoint" />
            <mxPoint as="offset" />
          </mxGeometry>
        </mxCell>
        <mxCell id="wH4gtBrT2uaNQ040a4KH-74" value="alt" style="shape=umlFrame;whiteSpace=wrap;html=1;pointerEvents=0;width=50;height=20;" vertex="1" parent="1">
          <mxGeometry x="595" y="743" width="480" height="397" as="geometry" />
        </mxCell>
        <mxCell id="wH4gtBrT2uaNQ040a4KH-75" value="云端调度请求" style="html=1;verticalAlign=bottom;endArrow=block;curved=0;rounded=0;" edge="1" parent="1">
          <mxGeometry x="-0.0113" width="80" relative="1" as="geometry">
            <mxPoint x="839" y="996.5" as="sourcePoint" />
            <mxPoint x="721" y="996.5" as="targetPoint" />
            <mxPoint as="offset" />
          </mxGeometry>
        </mxCell>
        <mxCell id="wH4gtBrT2uaNQ040a4KH-76" value="" style="html=1;points=[[0,0,0,0,5],[0,1,0,0,-5],[1,0,0,0,5],[1,1,0,0,-5]];perimeter=orthogonalPerimeter;outlineConnect=0;targetShapes=umlLifeline;portConstraint=eastwest;newEdgeStyle={&quot;curved&quot;:0,&quot;rounded&quot;:0};" vertex="1" parent="1">
          <mxGeometry x="715.98" y="1037" width="10" height="20" as="geometry" />
        </mxCell>
        <mxCell id="wH4gtBrT2uaNQ040a4KH-77" value="云端调度" style="html=1;align=left;spacingLeft=2;endArrow=block;rounded=0;edgeStyle=orthogonalEdgeStyle;curved=0;rounded=0;" edge="1" parent="1">
          <mxGeometry x="0.0086" relative="1" as="geometry">
            <mxPoint x="720.98" y="1017" as="sourcePoint" />
            <Array as="points">
              <mxPoint x="750.98" y="1047" />
            </Array>
            <mxPoint x="725.98" y="1047" as="targetPoint" />
            <mxPoint as="offset" />
          </mxGeometry>
        </mxCell>
        <mxCell id="wH4gtBrT2uaNQ040a4KH-78" value="" style="endArrow=none;dashed=1;html=1;rounded=0;exitX=0.003;exitY=0.608;exitDx=0;exitDy=0;exitPerimeter=0;entryX=1.002;entryY=0.608;entryDx=0;entryDy=0;entryPerimeter=0;" edge="1" parent="1">
          <mxGeometry width="50" height="50" relative="1" as="geometry">
            <mxPoint x="596.44" y="970.576" as="sourcePoint" />
            <mxPoint x="1075.9600000000005" y="970.576" as="targetPoint" />
          </mxGeometry>
        </mxCell>
        <mxCell id="wH4gtBrT2uaNQ040a4KH-79" value="&lt;b&gt;[上一层节点调度成功]&lt;/b&gt;" style="text;html=1;align=center;verticalAlign=middle;resizable=0;points=[];autosize=1;strokeColor=none;fillColor=none;" vertex="1" parent="1">
          <mxGeometry x="584.98" y="765" width="140" height="30" as="geometry" />
        </mxCell>
        <mxCell id="wH4gtBrT2uaNQ040a4KH-80" value="&lt;b&gt;[上一层节点调度失败]&lt;/b&gt;" style="text;html=1;align=center;verticalAlign=middle;resizable=0;points=[];autosize=1;strokeColor=none;fillColor=none;" vertex="1" parent="1">
          <mxGeometry x="584.98" y="971" width="140" height="30" as="geometry" />
        </mxCell>
        <mxCell id="wH4gtBrT2uaNQ040a4KH-81" value="&lt;b&gt;K8S API Server&lt;/b&gt;" style="shape=umlLifeline;perimeter=lifelinePerimeter;whiteSpace=wrap;html=1;container=1;dropTarget=0;collapsible=0;recursiveResize=0;outlineConnect=0;portConstraint=eastwest;newEdgeStyle={&quot;curved&quot;:0,&quot;rounded&quot;:0};size=40;fillColor=#f5f5f5;fontColor=#333333;strokeColor=#666666;fontSize=13;" vertex="1" parent="1">
          <mxGeometry x="430" y="561" width="70" height="589" as="geometry" />
        </mxCell>
        <mxCell id="wH4gtBrT2uaNQ040a4KH-82" value="" style="html=1;points=[[0,0,0,0,5],[0,1,0,0,-5],[1,0,0,0,5],[1,1,0,0,-5]];perimeter=orthogonalPerimeter;outlineConnect=0;targetShapes=umlLifeline;portConstraint=eastwest;newEdgeStyle={&quot;curved&quot;:0,&quot;rounded&quot;:0};" vertex="1" parent="wH4gtBrT2uaNQ040a4KH-81">
          <mxGeometry x="30" y="60" width="10" height="40" as="geometry" />
        </mxCell>
        <mxCell id="wH4gtBrT2uaNQ040a4KH-83" value="发送设备修改事件" style="html=1;verticalAlign=bottom;endArrow=block;curved=0;rounded=0;" edge="1" parent="1">
          <mxGeometry x="-0.0036" width="80" relative="1" as="geometry">
            <mxPoint x="469.9799999999999" y="631" as="sourcePoint" />
            <mxPoint x="584.98" y="631" as="targetPoint" />
            <mxPoint as="offset" />
          </mxGeometry>
        </mxCell>
        <mxCell id="wH4gtBrT2uaNQ040a4KH-84" value="发送调度结果信息" style="html=1;verticalAlign=bottom;endArrow=block;curved=0;rounded=0;" edge="1" parent="1">
          <mxGeometry x="-0.006" width="80" relative="1" as="geometry">
            <mxPoint x="848.5" y="930" as="sourcePoint" />
            <mxPoint x="969.5" y="930" as="targetPoint" />
            <mxPoint as="offset" />
          </mxGeometry>
        </mxCell>
        <mxCell id="wH4gtBrT2uaNQ040a4KH-85" value="" style="html=1;points=[[0,0,0,0,5],[0,1,0,0,-5],[1,0,0,0,5],[1,1,0,0,-5]];perimeter=orthogonalPerimeter;outlineConnect=0;targetShapes=umlLifeline;portConstraint=eastwest;newEdgeStyle={&quot;curved&quot;:0,&quot;rounded&quot;:0};" vertex="1" parent="1">
          <mxGeometry x="970" y="930" width="10" height="20" as="geometry" />
        </mxCell>
        <mxCell id="wH4gtBrT2uaNQ040a4KH-86" value="转发调度结果信息" style="html=1;verticalAlign=bottom;endArrow=block;curved=0;rounded=0;" edge="1" parent="1">
          <mxGeometry x="-0.0083" width="80" relative="1" as="geometry">
            <mxPoint x="848.98" y="1108" as="sourcePoint" />
            <mxPoint x="969.98" y="1108" as="targetPoint" />
            <mxPoint as="offset" />
          </mxGeometry>
        </mxCell>
      </root>
    </mxGraphModel>
  </diagram>
</mxfile>
